# xmcd
#
# Track frame offsets:
#	150
#	1435
#	17865
#	33480
#	52040
#	65470
#	67925
#	70755
#	71320
#	94605
#	108400
#	117930
#
# Disc length: 1731 seconds
#
# Revision: 0
# Processed by: cddbd v1.5.1PL0 Copyright (c) Steve Scherf et al.
# Submitted via: EasyCDDAExtractor 4.6.9.1
#
DISCID=9d06c10c
DTITLE=Bramble and Sunderman - Wharfman's Daughter
DYEAR=1900
DGENRE=country
TTITLE0=blank
TTITLE1=Bermuda Run
TTITLE2=Whisper's Mate
TTITLE3=Wharfman's Daughter
TTITLE4=Wind Blows Where It Will
TTITLE5=blank
TTITLE6=blank
TTITLE7=blank
TTITLE8=Rain Softly Falling
TTITLE9=Ten Years Ago
TTITLE10=Reincarnated (In Your Local Liquer Store)
TTITLE11=Smithy
EXTD=
EXTT0=
EXTT1=
EXTT2=
EXTT3=
EXTT4=
EXTT5=
EXTT6=
EXTT7=
EXTT8=
EXTT9=
EXTT10=
EXTT11=
PLAYORDER=
